<mxfile host="app.diagrams.net" agent="Mozilla/5.0 (Windows NT 10.0; Win64; x64) AppleWebKit/537.36 (KHTML, like Gecko) Chrome/135.0.0.0 Safari/537.36 Edg/135.0.0.0" version="26.2.12">
  <diagram name="第 1 页" id="OqGGluNNmhG34aOTT-5K">
    <mxGraphModel dx="379" dy="261" grid="1" gridSize="10" guides="1" tooltips="1" connect="1" arrows="1" fold="1" page="1" pageScale="1" pageWidth="827" pageHeight="1169" math="0" shadow="0">
      <root>
        <mxCell id="0" />
        <mxCell id="1" parent="0" />
        <mxCell id="1k1rpAn-p33p8svTMho_-1" value="Policy" style="rounded=0;whiteSpace=wrap;html=1;fillColor=#e1d5e7;strokeColor=#9673a6;" vertex="1" parent="1">
          <mxGeometry x="80" y="240" width="80" height="80" as="geometry" />
        </mxCell>
        <mxCell id="1k1rpAn-p33p8svTMho_-3" value="" style="verticalLabelPosition=bottom;verticalAlign=top;html=1;strokeWidth=2;shape=mxgraph.arrows2.arrow;dy=0.49;dx=16.57;notch=0;" vertex="1" parent="1">
          <mxGeometry x="180" y="267.5" width="100" height="25" as="geometry" />
        </mxCell>
        <mxCell id="1k1rpAn-p33p8svTMho_-8" value="θ" style="text;html=1;align=center;verticalAlign=middle;whiteSpace=wrap;rounded=0;" vertex="1" parent="1">
          <mxGeometry x="120" y="295" width="60" height="30" as="geometry" />
        </mxCell>
        <mxCell id="1k1rpAn-p33p8svTMho_-12" value="" style="verticalLabelPosition=bottom;verticalAlign=top;html=1;strokeWidth=2;shape=mxgraph.arrows2.arrow;dy=0.53;dx=18;notch=0;" vertex="1" parent="1">
          <mxGeometry x="410" y="200" width="80" height="32.5" as="geometry" />
        </mxCell>
        <mxCell id="1k1rpAn-p33p8svTMho_-13" value="GA" style="rounded=0;whiteSpace=wrap;html=1;fillColor=#e1d5e7;strokeColor=#9673a6;" vertex="1" parent="1">
          <mxGeometry x="500" y="186.25" width="60" height="60" as="geometry" />
        </mxCell>
        <mxCell id="1k1rpAn-p33p8svTMho_-15" value="" style="group" vertex="1" connectable="0" parent="1">
          <mxGeometry x="300" y="200" width="90" height="160" as="geometry" />
        </mxCell>
        <mxCell id="1k1rpAn-p33p8svTMho_-4" value="" style="strokeWidth=2;html=1;shape=mxgraph.flowchart.database;whiteSpace=wrap;fillColor=#89929E;strokeColor=#6c8ebf;" vertex="1" parent="1k1rpAn-p33p8svTMho_-15">
          <mxGeometry y="120" width="90" height="40" as="geometry" />
        </mxCell>
        <mxCell id="1k1rpAn-p33p8svTMho_-2" value="" style="strokeWidth=2;html=1;shape=mxgraph.flowchart.database;whiteSpace=wrap;fillColor=#929CAA;strokeColor=#6c8ebf;" vertex="1" parent="1k1rpAn-p33p8svTMho_-15">
          <mxGeometry y="100" width="90" height="40" as="geometry" />
        </mxCell>
        <mxCell id="1k1rpAn-p33p8svTMho_-5" value="" style="strokeWidth=2;html=1;shape=mxgraph.flowchart.database;whiteSpace=wrap;fillColor=#A0AABA;strokeColor=#6c8ebf;" vertex="1" parent="1k1rpAn-p33p8svTMho_-15">
          <mxGeometry y="75" width="90" height="40" as="geometry" />
        </mxCell>
        <mxCell id="1k1rpAn-p33p8svTMho_-9" value="" style="strokeWidth=2;html=1;shape=mxgraph.flowchart.database;whiteSpace=wrap;fillColor=#B7C4D4;strokeColor=#6c8ebf;" vertex="1" parent="1k1rpAn-p33p8svTMho_-15">
          <mxGeometry y="50" width="90" height="40" as="geometry" />
        </mxCell>
        <mxCell id="1k1rpAn-p33p8svTMho_-10" value="" style="strokeWidth=2;html=1;shape=mxgraph.flowchart.database;whiteSpace=wrap;fillColor=#CEDBEE;strokeColor=#6c8ebf;" vertex="1" parent="1k1rpAn-p33p8svTMho_-15">
          <mxGeometry y="25" width="90" height="40" as="geometry" />
        </mxCell>
        <mxCell id="1k1rpAn-p33p8svTMho_-11" value="" style="strokeWidth=2;html=1;shape=mxgraph.flowchart.database;whiteSpace=wrap;fillColor=#dae8fc;strokeColor=#6c8ebf;" vertex="1" parent="1k1rpAn-p33p8svTMho_-15">
          <mxGeometry width="90" height="40" as="geometry" />
        </mxCell>
        <mxCell id="1k1rpAn-p33p8svTMho_-16" value="" style="verticalLabelPosition=bottom;verticalAlign=top;html=1;strokeWidth=2;shape=mxgraph.arrows2.arrow;dy=0.53;dx=18;notch=0;" vertex="1" parent="1">
          <mxGeometry x="410" y="327.5" width="80" height="32.5" as="geometry" />
        </mxCell>
        <mxCell id="1k1rpAn-p33p8svTMho_-18" value="GA" style="rounded=0;whiteSpace=wrap;html=1;fillColor=#e1d5e7;strokeColor=#9673a6;" vertex="1" parent="1">
          <mxGeometry x="500" y="313.75" width="60" height="60" as="geometry" />
        </mxCell>
        <mxCell id="1k1rpAn-p33p8svTMho_-34" style="edgeStyle=orthogonalEdgeStyle;rounded=0;orthogonalLoop=1;jettySize=auto;html=1;exitX=0.5;exitY=0;exitDx=0;exitDy=0;entryX=1;entryY=0.5;entryDx=0;entryDy=0;strokeWidth=3;endArrow=openThin;endFill=0;fillColor=#f5f5f5;strokeColor=#B1B1B1;" edge="1" parent="1" source="1k1rpAn-p33p8svTMho_-13" target="1k1rpAn-p33p8svTMho_-13">
          <mxGeometry relative="1" as="geometry" />
        </mxCell>
        <mxCell id="1k1rpAn-p33p8svTMho_-35" style="edgeStyle=orthogonalEdgeStyle;rounded=0;orthogonalLoop=1;jettySize=auto;html=1;exitX=0.5;exitY=0;exitDx=0;exitDy=0;entryX=1;entryY=0.5;entryDx=0;entryDy=0;strokeWidth=3;endArrow=openThin;endFill=0;fillColor=#f5f5f5;strokeColor=#B1B1B1;" edge="1" parent="1" source="1k1rpAn-p33p8svTMho_-18" target="1k1rpAn-p33p8svTMho_-18">
          <mxGeometry relative="1" as="geometry">
            <mxPoint x="540" y="196" as="sourcePoint" />
            <mxPoint x="570" y="226" as="targetPoint" />
          </mxGeometry>
        </mxCell>
      </root>
    </mxGraphModel>
  </diagram>
</mxfile>
